# xmcd CD database file
#
# Track frame offsets:
#	150
#	29227
#	63225
#	95750
#	128942
#	163755
#	202602
#	240095
#	261215
#	288202
#
# Disc length: 4269 seconds
#
# Revision: 1
# Processed by: cddbd v1.5PL3 Copyright (c) Steve Scherf et al.
# Submitted via: CDex 1.60beta1
#
DISCID=8710ab0a
DTITLE=Soprano Summit - Summit Reunion in Atlanta
DYEAR=2003
DGENRE=Jazz
TTITLE0=I Found a New Baby
TTITLE1=If I Had You 
TTITLE2=Mama's Gone Goodbye
TTITLE3=Wabash Blues
TTITLE4=Love Me or Leave Me
TTITLE5=Loveless Love
TTITLE6=Song of the Wanderer
TTITLE7=Blues My Naughty Sweetie Gives to Me
TTITLE8=Someday Sweetheart
TTITLE9=Diga Diga Doo
EXTD=YEAR: 2003
EXTT0=
EXTT1=
EXTT2=
EXTT3=
EXTT4=
EXTT5=
EXTT6=
EXTT7=
EXTT8=
EXTT9=
PLAYORDER=
